<svg xmlns="http://www.w3.org/2000/svg" xmlns:xlink="http://www.w3.org/1999/xlink" viewBox="0 0 96 96" xmlns:v="https://vecta.io/nano"><defs><path id="A" d="M.5.5h95v95H.5z"/></defs><clipPath id="B"><use xlink:href="#A"/></clipPath><g clip-path="url(#B)"><defs><filter id="C" filterUnits="userSpaceOnUse" x=".5" y=".5" width="95" height="95"><feColorMatrix values="1 0 0 0 0  0 1 0 0 0  0 0 1 0 0  0 0 0 1 0"/></filter></defs><mask maskUnits="userSpaceOnUse" x=".5" y=".5" width="95" height="95" id="D"><g filter="url(#C)"><path d="M.5.5h95v95H.5V.5z" fill="#fff"/></g></mask><g mask="url(#D)"><linearGradient id="E" gradientUnits="userSpaceOnUse" x1="81.395" y1="104.551" x2="9.185" y2="-17.73"><stop offset="0" stop-color="#e9b204"/><stop offset="1" stop-color="#f0b90b"/></linearGradient><path d="M48 .5C74.2.5 95.5 21.8 95.5 48S74.2 95.5 48 95.5.5 74.2.5 48 21.8.5 48 .5z" fill="url(#E)"/><path d="M35.7 42.9l7.2-7.2 1.5-1.5 3.6-3.6 12.2 12.3 7.1-7.2L48 16.3 28.6 35.7l7.1 7.2zm5.2 5.1l7.2-7.2 7.2 7.2-7.3 7.1-7.1-7.1zm19.4 5.1L48 65.4l-4.3-4.3-.8-.8-7.2-7.2-7.1 7.1L48 79.6l19.4-19.4-7.1-7.1zm-44-5.1l7.2-7.2 7.2 7.2-7.2 7.2-7.2-7.2zm49.1 0l7.2-7.2 7.2 7.2-7.2 7.2-7.2-7.2z" fill="#fff"/></g></g></svg>