<svg xmlns="http://www.w3.org/2000/svg" viewBox="0 0 96 96" xmlns:v="https://vecta.io/nano"><linearGradient id="A" gradientUnits="userSpaceOnUse" x1="9.141" y1="130.709" x2="56.209" y2="30.527"><stop offset="0" stop-color="#8ddad5"/><stop offset="1" stop-color="#1ba27a"/></linearGradient><path d="M48 .5h0C74.2.5 95.5 21.8 95.5 48h0c0 26.2-21.3 47.5-47.5 47.5h0C21.8 95.5.5 74.2.5 48h0C.5 21.8 21.8.5 48 .5z" fill="url(#A)"/><g fill="#fff"><path d="M70.6,23H24.8v11h17.3v16.2h11V34h17.3V23z"/><path d="M47.8 51.9c-14.3 0-26-2.3-26-5.1s11.6-5.1 26-5.1c14.3 0 26 2.3 26 5.1 0 2.9-11.7 5.1-26 5.1zM77 47.7c0-3.6-13.1-6.5-29.2-6.5s-29.2 2.9-29.2 6.5c0 3.2 10.1 5.8 23.5 6.4v23.3h11V54.1c13.6-.5 23.9-3.2 23.9-6.4z"/></g></svg>