<svg xmlns="http://www.w3.org/2000/svg" viewBox="0 0 96 96" xmlns:v="https://vecta.io/nano"><linearGradient id="A" gradientUnits="userSpaceOnUse" x1="64.06" y1="14.988" x2="1.878" y2="142.806"><stop offset="0" stop-color="#fc070c"/><stop offset="1" stop-color="#f45c43"/></linearGradient><path d="M48 .5h0C74.2.5 95.5 21.8 95.5 48h0c0 26.2-21.3 47.5-47.5 47.5h0C21.8 95.5.5 74.2.5 48h0C.5 21.8 21.8.5 48 .5z" fill="url(#A)"/><path d="M74.7 39.6L70.9 36l-5.7-5.4-.2-.2-1-.6-1.4-.3L21.5 22c-.2 0-.4.1-.5.2l-.2.1c-.2.2-.4.5-.5.8v.1.6.2c2.1 5.8 7.5 18.9 12.6 30.9h0 0 0l9.6 23.4h0c.2.6.5 1.6 1.2 1.7h.1c.3 0 1.8-1.9 1.8-1.9l28.9-35.2c.3-.4.6-.9.9-1.3.2-.8-.1-1.5-.7-2zm-22.3 3.7L63.6 34l6.6 6.1-17.8 3.2zM28.7 26.9L48 42.7l12-10.1-31.3-5.7zm21.1 19.9l19.7-3.2-22.6 27.2 2.9-24zm-3.4-1.1L26.1 28.4l17.4 42.4 2.9-25.1z" fill-rule="evenodd" fill="#fff"/></svg>