<svg xmlns="http://www.w3.org/2000/svg" xmlns:xlink="http://www.w3.org/1999/xlink" viewBox="0 0 96 96" xmlns:v="https://vecta.io/nano"><defs><path id="A" d="M.5.5h95v95H.5z"/></defs><clipPath id="B"><use xlink:href="#A"/></clipPath><g clip-path="url(#B)"><path d="M48 90.4c23.4 0 42.4-19 42.4-42.4S71.4 5.6 48 5.6 5.6 24.6 5.6 48s19 42.4 42.4 42.4z" fill="#fff"/><linearGradient id="C" gradientUnits="userSpaceOnUse" x1="18.781" y1="-3.368" x2="77.662" y2="100.044"><stop offset="0" stop-color="#3f68a8"/><stop offset="1" stop-color="#2c5493"/></linearGradient><path d="M48 .5c-9.4 0-18.6 2.8-26.4 8A47.36 47.36 0 0 0 4.1 29.8C.5 38.5-.4 48 1.4 57.2s6.4 17.7 13 24.3 15.1 11.2 24.3 13 18.8.9 27.4-2.7a47.36 47.36 0 0 0 21.3-17.5c5.2-7.8 8-17 8-26.4 0-6.2-1.2-12.4-3.6-18.1-2.4-5.8-5.8-11-10.2-15.4A47.99 47.99 0 0 0 66.3 4.1C60.6 1.7 54.4.5 48.2.4H48zm.8 49.1l-4.9 16.7h26.5c.2 0 .4 0 .5.1.2.1.3.2.4.3s.2.3.3.4a.9.9 0 0 1 .1.5v.4l-2.3 7.9c-.1.4-.3.7-.6.9s-.7.3-1.1.3H27.2l6.8-23-7.6 2.3 1.7-5.3 7.6-2.3 9.5-32.4c.1-.4.3-.7.6-.9s.7-.3 1.1-.3h10.2c.2 0 .4 0 .5.1.2.1.3.2.4.3s.2.3.3.4a.9.9 0 0 1 .1.5v.4l-8.1 27.4 7.6-2.3-1.6 5.5-7.5 2.1z" fill="url(#C)"/></g></svg>