<?xml version="1.0" encoding="utf-8"?>
<svg version="1.1" id="Layer_1"
	 xmlns="http://www.w3.org/2000/svg" xmlns:xlink="http://www.w3.org/1999/xlink" x="0px" y="0px" viewBox="0 0 96 96"
	 style="enable-background:new 0 0 96 96;" xml:space="preserve">
<style type="text/css">
	.st0{fill:url(#SVGID_1_);}
	.st1{fill-rule:evenodd;clip-rule:evenodd;fill:#FFFFFF;}
	.st2{fill:#FFFFFF;}
</style>
	<g>
		<linearGradient id="SVGID_1_" gradientUnits="userSpaceOnUse" x1="15.3368" y1="96.5894" x2="79.1649" y2="5.5478"
						gradientTransform="matrix(1 0 0 -1 0 98)">
		<stop offset="0" style="stop-color:#00ACD7"/>
			<stop offset="1" style="stop-color:#00A8D3"/>
	</linearGradient>
		<path class="st0" d="M48,0.5L48,0.5c26.2,0,47.5,21.3,47.5,47.5l0,0c0,26.2-21.3,47.5-47.5,47.5l0,0C21.8,95.5,0.5,74.2,0.5,48l0,0
		C0.5,21.8,21.8,0.5,48,0.5z"/>
		<path class="st1" d="M13.3,42c-0.2,0-0.2-0.1-0.1-0.2l0.8-1.1c0.1-0.1,0.3-0.2,0.4-0.2h14.2c0.2,0,0.2,0.1,0.1,0.2l-0.7,1
		C28,41.9,27.8,42,27.7,42L13.3,42L13.3,42z M7.3,45.6c-0.2,0-0.2-0.1-0.1-0.2L8,44.4c0.1-0.1,0.3-0.2,0.4-0.2h18.1
		c0.2,0,0.2,0.1,0.2,0.2l-0.3,1c0,0.2-0.2,0.2-0.4,0.2L7.3,45.6L7.3,45.6z M16.9,49.3c-0.2,0-0.2-0.1-0.1-0.2l0.6-1
		c0.1-0.1,0.2-0.2,0.4-0.2h8c0.2,0,0.2,0.1,0.2,0.3l-0.1,1c0,0.2-0.2,0.3-0.3,0.3L16.9,49.3L16.9,49.3z M58.2,41.3L51.5,43
		c-0.6,0.2-0.6,0.2-1.2-0.4c-0.6-0.7-1-1.1-1.9-1.5c-2.5-1.2-4.9-0.9-7.2,0.6c-2.7,1.7-4.1,4.3-4.1,7.6c0,3.2,2.2,5.8,5.4,6.2
		c2.7,0.4,5-0.6,6.8-2.6c0.4-0.4,0.7-0.9,1.1-1.5h-7.7c-0.8,0-1-0.5-0.8-1.2l2-4.3c0.1-0.2,0.4-0.6,1-0.6h14.5l-0.2,3.2
		c-0.4,2.9-1.5,5.5-3.3,7.8c-2.9,3.8-6.6,6.1-11.3,6.8c-3.9,0.5-7.5-0.2-10.7-2.6c-2.9-2.2-4.6-5.2-5-8.8c-0.5-4.3,0.8-8.2,3.4-11.7
		c2.8-3.7,6.6-6,11.1-6.9c3.7-0.7,7.3-0.2,10.5,1.9c2.1,1.4,3.6,3.3,4.6,5.6C58.9,40.9,58.7,41.1,58.2,41.3L58.2,41.3L58.2,41.3z"/>
		<path class="st2" d="M71.4,63.3c-3.6-0.1-6.9-1.1-9.7-3.5c-2.3-2-3.8-4.6-4.3-7.7c-0.7-4.5,0.5-8.5,3.2-12
		c2.9-3.8,6.4-5.8,11.1-6.6c4.1-0.7,7.9-0.3,11.3,2c3.1,2.1,5.1,5,5.6,8.9c0.7,5.4-0.9,9.7-4.6,13.5c-2.6,2.7-5.8,4.3-9.5,5.1
		C73.5,63.1,72.4,63.1,71.4,63.3L71.4,63.3z M80.8,47.2c0-0.5,0-0.9-0.1-1.3c-0.7-3.9-4.3-6.2-8.1-5.3c-3.7,0.8-6.1,3.2-7,6.9
		c-0.7,3.1,0.8,6.2,3.7,7.5c2.2,1,4.4,0.8,6.5-0.2C78.9,53.2,80.6,50.6,80.8,47.2z"/>
</g>
</svg>
