<?xml version="1.0" encoding="utf-8"?>
<svg version="1.1" id="Layer_1"
	 xmlns="http://www.w3.org/2000/svg" xmlns:xlink="http://www.w3.org/1999/xlink" x="0px" y="0px" viewBox="0 0 96 96"
	 style="enable-background:new 0 0 96 96;" xml:space="preserve">
<style type="text/css">
	.st0{fill:url(#SVGID_1_);}
	.st1{fill:#FFFFFF;}
</style>
<g>
		<linearGradient id="SVGID_1_" gradientUnits="userSpaceOnUse" x1="5.4583" y1="97.6177" x2="92.5416" y2="0.1438" gradientTransform="matrix(1 0 0 -1 0 98)">
		<stop  offset="0" style="stop-color:#83CD29"/>
		<stop  offset="1" style="stop-color:#74BE1A"/>
	</linearGradient>
	<path class="st0" d="M48,0.5L48,0.5c26.2,0,47.5,21.3,47.5,47.5l0,0c0,26.2-21.3,47.5-47.5,47.5l0,0C21.8,95.5,0.5,74.2,0.5,48l0,0
		C0.5,21.8,21.8,0.5,48,0.5z"/>
	<path class="st1" d="M78.2,27.2L50.9,11.3c-1.7-1-4-1-5.7,0L17.6,27.2c-1.8,1-3,2.9-3,5v31.6c0,2.1,1.3,4,3.1,5l7.3,4.1
		c3.5,1.7,4.7,1.7,6.3,1.7c5.2,0,8.1-3.1,8.1-8.6V34.9c0-0.4-0.2-1.1-0.7-1.1h-3.5c-0.4,0-1.4,0.7-1.4,1.1v31.2
		c0,2.4-2.2,4.8-6.3,2.8L20,64.5c-0.3-0.1-0.4-0.4-0.4-0.7V32.2c0-0.3,0.3-0.6,0.6-0.8l27.5-15.8c0.3-0.1,0.6-0.1,0.9,0l27.1,15.8
		c0.3,0.2,0.2,0.4,0.2,0.8v31.6c0,0.3,0.1,0.6-0.1,0.7L48.4,80.4c-0.2,0.1-0.5,0.1-0.8,0l-7-4.2c-0.2-0.1-0.5-0.2-0.7-0.1
		c-1.9,1.1-2.3,1.2-4.1,1.9c-0.4,0.2-1.1,0.4,0.3,1.2l9.2,5.4c0.9,0.5,1.9,0.8,2.9,0.8c1,0,2-0.3,2.9-0.8l27.1-15.8
		c1.8-1,2.6-2.9,2.6-5V32.2C80.8,30.1,79.9,28.2,78.2,27.2L78.2,27.2z M56.6,58.8c-7.3,0-8.8-2-9.4-5.6c-0.1-0.4-0.4-0.9-0.8-0.9
		h-3.5c-0.4,0-0.8,0.5-0.8,1c0,4.6,2.5,10.2,14.5,10.2c8.7,0,13.7-3.4,13.7-9.3c0-5.9-4-7.5-12.4-8.6c-8.5-1.1-9.4-1.7-9.4-3.7
		c0-1.6,0.7-3.8,7-3.8c5.6,0,7.7,1.2,8.6,5c0.1,0.4,0.4,0.6,0.8,0.6h3.6c0.2,0,0.4-0.1,0.6-0.2c0.2-0.2,0.2-0.4,0.2-0.6
		c-0.6-6.5-4.9-9.6-13.7-9.6c-7.8,0-12.5,3.3-12.5,8.8c0,6,4.6,7.7,12.1,8.4c9,0.9,9.7,2.2,9.7,4C64.8,57.5,62.4,58.8,56.6,58.8
		L56.6,58.8z"/>
</g>
</svg>
