<?xml version="1.0" encoding="utf-8"?>
<svg version="1.1" id="Layer_1"
	 xmlns="http://www.w3.org/2000/svg" xmlns:xlink="http://www.w3.org/1999/xlink" x="0px" y="0px" viewBox="0 0 96 96"
	 style="enable-background:new 0 0 96 96;" xml:space="preserve">
<style type="text/css">
	.st0{fill:url(#SVGID_1_);}
	.st1{fill:#FFFFFF;}
</style>
	<g>
		<linearGradient id="SVGID_1_" gradientUnits="userSpaceOnUse" x1="14.5594" y1="96.8656" x2="82.3459" y2="1.8656"
						gradientTransform="matrix(1 0 0 -1 0 98)">
		<stop offset="0" style="stop-color:#6181B6"/>
			<stop offset="1" style="stop-color:#5979AE"/>
	</linearGradient>
		<path class="st0" d="M48,0.5L48,0.5c26.2,0,47.5,21.3,47.5,47.5l0,0c0,26.2-21.3,47.5-47.5,47.5l0,0C21.8,95.5,0.5,74.2,0.5,48l0,0
		C0.5,21.8,21.8,0.5,48,0.5z"/>
		<path class="st1" d="M35.6,52.7c-1.1,1.1-2.4,1.5-3.8,1.9c-1.4,0.5-3.1,0.4-5.3,0.4h-4.9l-1.3,7.8h-5.7l5.1-26.4h10.9
		c3.3,0,5.7,0.9,7.2,2.7s2,4.2,1.4,7.3c-0.2,1.3-0.7,2.5-1.3,3.5C37.3,50.9,36.6,51.8,35.6,52.7L35.6,52.7z M52.2,55l2.2-11.2
		c0.3-1.3,0.2-2.3-0.3-2.8c-0.4-0.5-1.4-0.8-2.8-0.8h-4.5L43.9,55h-5.6l5.1-25.7H49l-1.3,7h5c3.2,0,5.3,0.6,6.5,1.7
		c1.2,1.1,1.6,2.6,1.1,5.1L57.9,55H52.2L52.2,55z M83.5,46.3c-0.2,1.3-0.7,2.4-1.3,3.5c-0.6,1.1-1.4,2-2.3,2.9
		c-1.1,1.1-2.4,1.5-3.8,1.9C74.8,55.1,73,55,70.9,55H66l-1.3,7.8H59l5.1-26.4H75c3.3,0,5.7,0.9,7.2,2.7
		C83.7,40.7,84.1,43.2,83.5,46.3L83.5,46.3z M72.8,40.2h-3.9l-2.1,10.9h3.5c2.3,0,4-0.2,5.1-1.1c1.1-0.9,1.9-2.2,2.3-4.2
		c0.4-1.9,0.2-3.4-0.5-4.2C76.4,40.8,75,40.2,72.8,40.2L72.8,40.2z M28.5,40.2h-3.9l-2.1,10.9H26c2.3,0,4-0.2,5.1-1.1
		c1.1-0.9,1.9-2.2,2.3-4.2c0.4-1.9,0.2-3.4-0.5-4.2C32.1,40.8,30.7,40.2,28.5,40.2L28.5,40.2z"/>
</g>
</svg>
