<svg xmlns="http://www.w3.org/2000/svg" viewBox="0 0 96 96" xmlns:v="https://vecta.io/nano"><linearGradient id="A" gradientUnits="userSpaceOnUse" x1="83.276" y1="-10.317" x2="8.571" y2="113.183"><stop offset="0" stop-color="#04befe"/><stop offset="1" stop-color="#4481eb"/></linearGradient><path d="M48 .5h0C74.2.5 95.5 21.8 95.5 48h0c0 26.2-21.3 47.5-47.5 47.5h0C21.8 95.5.5 74.2.5 48h0C.5 21.8 21.8.5 48 .5z" fill="url(#A)"/><path d="M64.2 27H31.8c-6 0-9.7 6.4-6.7 11.6l20 34.7c1.3 2.3 4.6 2.3 5.9 0l20-34.7c3-5.1-.8-11.6-6.8-11.6h0zM45 62.9l-4.4-8.4-10.4-18.8c-.7-1.2.2-2.7 1.6-2.7H45v29.9h0zm20.8-27.2L55.3 54.5 51 62.9v-30h13.3c1.4 0 2.2 1.6 1.5 2.8z" fill="#fff"/></svg>