<svg xmlns="http://www.w3.org/2000/svg" viewBox="0 0 96 96" xmlns:v="https://vecta.io/nano"><linearGradient id="A" gradientUnits="userSpaceOnUse" x1="-17.805" y1="160.895" x2="76.331" y2="-.605"><stop offset="0" stop-color="#ff930f"/><stop offset="1" stop-color="#fbc411"/></linearGradient><path d="M48 .5h0C74.2.5 95.5 21.8 95.5 48h0c0 26.2-21.3 47.5-47.5 47.5h0C21.8 95.5.5 74.2.5 48h0C.5 21.8 21.8.5 48 .5z" fill="url(#A)"/><g fill="#fff"><path d="M70.9 41.2c1-7-4.3-10.7-11.5-13.2l2.4-9.5-5.8-1.4-2.3 9.2c-1.5-.4-3.1-.7-4.6-1.1l2.3-9.3-5.8-1.4-2.4 9.4-3.7-.9h0l-7.9-2-1.5 6.1 4.2 1c2.3.6 2.8 2.1 2.7 3.3l-2.7 10.8c.2 0 .4.1.6.2l-.6-.2-3.8 15.1c-.3.7-1 1.8-2.6 1.4.1.1-4.2-1-4.2-1l-2.9 6.6 7.5 1.9c1.4.3 2.8.7 4.1 1.1L30 76.9l5.7 1.4 2.4-9.5 4.6 1.2-2.3 9.4 5.8 1.4 2.4-9.5c9.8 1.9 17.2 1.1 20.3-7.8 2.5-7.1-.1-11.3-5.3-14 3.7-.8 6.5-3.2 7.3-8.3zM57.7 59.6C56 66.7 43.9 62.9 40 61.9l3.2-12.7c3.9 1 16.4 2.9 14.5 10.4zm1.8-18.5c-1.6 6.5-11.6 3.2-14.9 2.4L47.5 32c3.2.8 13.7 2.3 12 9.1z"/><path d="M34.4 42.1l.9.2-.2.6-.9-.2.2-.6z"/></g></svg>