<svg xmlns="http://www.w3.org/2000/svg" xmlns:xlink="http://www.w3.org/1999/xlink" viewBox="0 0 96 96" xmlns:v="https://vecta.io/nano"><linearGradient id="A" gradientUnits="userSpaceOnUse" x1="140.409" y1="-44.409" x2="-42.682" y2="138.682"><stop offset="0" stop-color="#e9e9e7"/><stop offset=".272" stop-color="#efeeec"/><stop offset=".609" stop-color="#eeeeec"/><stop offset="1" stop-color="#d5d4d0"/></linearGradient><use xlink:href="#D" fill="url(#A)"/><linearGradient id="B" gradientUnits="userSpaceOnUse" x1="-25.864" y1="63.96" x2="85.849" y2="39.822"><stop offset="0" stop-color="#eeedf1"/><stop offset="1" stop-color="#fff"/></linearGradient><use xlink:href="#D" fill="url(#B)"/><path d="M47.8 16.9l-.4 1.4v41.2l.4.4 19.6-11.3-19.6-31.7z" fill="#343434"/><path d="M47.8,16.9L28.1,48.7L47.8,60V40V16.9z" fill="#8c8c8c"/><path d="M47.8 63.6l-.2.3v14.7l.2.7 19.6-27-19.6 11.3z" fill="#3c3c3b"/><path d="M47.8 79.3V63.6L28.1 52.3l19.7 27z" fill="#8c8c8c"/><path d="M47.8,60l19.6-11.3L47.8,40V60z" fill="#141414"/><path d="M28.1,48.7L47.8,60V40L28.1,48.7z" fill="#393939"/><defs ><path id="D" d="M48 .5h0C74.2.5 95.5 21.8 95.5 48h0c0 26.2-21.3 47.5-47.5 47.5h0C21.8 95.5.5 74.2.5 48h0C.5 21.8 21.8.5 48 .5z"/></defs></svg>