<svg xmlns="http://www.w3.org/2000/svg" viewBox="0 0 96 96" xmlns:v="https://vecta.io/nano"><linearGradient id="A" gradientUnits="userSpaceOnUse" x1="53.616" y1="39.656" x2="-37.066" y2="174.383"><stop offset="0" stop-color="#2775ca"/><stop offset="1" stop-color="#00bbf9"/></linearGradient><path d="M48 .5h0C74.2.5 95.5 21.8 95.5 48h0c0 26.2-21.3 47.5-47.5 47.5h0C21.8 95.5.5 74.2.5 48h0C.5 21.8 21.8.5 48 .5z" fill="url(#A)"/><g fill="#fff"><path d="M61.6 55.5c0-7.1-4.2-9.5-12.7-10.5-6.1-.8-7.3-2.4-7.3-5.3 0-2.8 2-4.6 6.1-4.6 3.6 0 5.7 1.2 6.7 4.2.2.6.8 1 1.4 1H59c.8 0 1.4-.6 1.4-1.4v-.2c-.8-4.4-4.4-7.9-9.1-8.3v-4.9c0-.8-.6-1.4-1.6-1.6h-3c-.8 0-1.4.6-1.6 1.6v4.6c-6.1.8-9.9 4.9-9.9 9.9 0 6.7 4 9.3 12.5 10.3 5.7 1 7.5 2.2 7.5 5.5 0 3.2-2.8 5.5-6.7 5.5-5.3 0-7.1-2.2-7.7-5.3-.2-.8-.8-1.2-1.4-1.2H36c-.8 0-1.4.6-1.4 1.4v.2c.8 5.1 4 8.7 10.7 9.7V71c0 .8.6 1.4 1.6 1.6h3c.8 0 1.4-.6 1.6-1.6v-4.9c6-.9 10.1-5.1 10.1-10.6z"/><path d="M19.9 37.9c-5.9 15.6 2.2 33.2 18 38.8.6.4 1.2 1.2 1.2 1.8v2.8c0 .4 0 .6-.2.8-.2.8-1 1.2-1.8.8-11.3-3.6-20-12.3-23.7-23.7C7.3 40 17.8 19.6 37.1 13.5c.2-.2.6-.2.8-.2.8.2 1.2.8 1.2 1.6v2.8c0 1-.4 1.6-1.2 2-8.3 3.3-15 9.7-18 18.2zm37.6-23.4c.2-.8 1-1.2 1.8-.8C70.4 17.3 79.3 26 83 37.5c6.1 19.2-4.4 39.6-23.7 45.7-.2.2-.6.2-.8.2-.8-.2-1.2-.8-1.2-1.6V79c0-1 .4-1.6 1.2-2 8.3-3 15-9.5 18-18 5.9-15.6-2.2-33.2-18-38.8-.6-.4-1.2-1.2-1.2-2v-2.8c0-.5 0-.7.2-.9z" fill-rule="evenodd"/></g></svg>