<?xml version="1.0" encoding="utf-8"?>
<!-- Generator: Adobe Illustrator 26.0.2, SVG Export Plug-In . SVG Version: 6.00 Build 0)  -->
<svg version="1.2" baseProfile="tiny" id="Layer_1" xmlns="http://www.w3.org/2000/svg" xmlns:xlink="http://www.w3.org/1999/xlink"
	 x="0px" y="0px" width="1080px" height="1080px" viewBox="0 0 1080 1080" overflow="visible" xml:space="preserve">
<rect x="-0.5" y="0.2" fill="#3BA3E2" width="1080" height="1080"/>
<path fill="none" d="M1661.2,471.8c0.2-0.3,0.3-0.6,0.5-0.9c-0.4,0.8-0.8,1.5-1.3,2.3C1660.6,472.8,1660.9,472.3,1661.2,471.8z"/>
<g>
	<path fill="#D0EBF8" d="M686.3,733.8c16.7,0,24.1-13.2,31.4-25.1C774,604.5,830.2,500,886.4,395.1c15.9-29.5,5.1-48.3-28.7-48.3
		c-66.1,0-133.6,0-201.1,0c-23.9-1.5-46.2,11.9-56,33.7c-16.9,31.4-33.7,62.1-50.6,93.5c-8.3,16.9-14,14.5-21.8,0
		c-17.4-32.9-36.3-65.5-53.1-98.2c-7.7-17.2-24.8-29-43.7-29c-72.2,0-144.3,0-216.3,0c-26.3,0.3-36.8,19.7-24.8,43.5
		c7.4,15.2,16.2,30,24.3,45l145.8,270c10.6,19.6,23.2,28.3,49.6,28.3"/>
	<path fill="#FEFEFE" d="M857.8,346.9c-66.1,0-133.6,0-201.1,0c-23.9-1.5-46.2,11.9-56,33.7c-1.5,2.7-2.9,5.5-4.4,8.2
		c-0.9,3.6-2.5,7-4.8,9.9c-13.3,24-26.5,48-39.7,72.1c-0.6,1.1-1.2,2.1-1.7,3.2c-1,2.1-2,3.9-3,5.5c-41.9,77-83,154.5-124.3,231.7
		c-4.7,9.1-11.8,16.8-20.4,22.2c2.4,0.2,5,0.3,7.7,0.3h276.4c16.7,0,24.1-13.2,31.4-25.1C774,604.5,830.2,500,886.4,395.1
		C902.3,365.6,891.5,346.9,857.8,346.9z"/>
</g>
</svg>
