<?xml version="1.0" encoding="utf-8"?>
<svg version="1.1" id="Layer_1"
	 xmlns="http://www.w3.org/2000/svg" xmlns:xlink="http://www.w3.org/1999/xlink" x="0px" y="0px" viewBox="0 0 96 96"
	 style="enable-background:new 0 0 96 96;" xml:space="preserve">
<style type="text/css">
	.st0{fill:url(#SVGID_1_);}
	.st1{fill:#FFFFFF;}
</style>
	<g>
		<linearGradient id="SVGID_1_" gradientUnits="userSpaceOnUse" x1="17.1105" y1="-6.5169" x2="76.9802"
						y2="-98.5482" gradientTransform="matrix(1 0 0 -1 0 -6)">
		<stop offset="0" style="stop-color:#6B3FA0"/>
			<stop offset="1" style="stop-color:#552D85"/>
	</linearGradient>
		<path class="st0" d="M48,0.5L48,0.5c26.2,0,47.5,21.3,47.5,47.5l0,0c0,26.2-21.3,47.5-47.5,47.5h0C21.8,95.5,0.5,74.2,0.5,48l0,0
		C0.5,21.8,21.8,0.5,48,0.5z"/>
		<path class="st1" d="M15.6,61c-0.7,0-1.3-0.2-1.8-0.7c-0.2-0.2-0.4-0.5-0.5-0.8c-0.1-0.3-0.2-0.6-0.2-0.9s0.1-0.6,0.2-0.9
		s0.3-0.6,0.5-0.8c0.5-0.5,1.1-0.7,1.8-0.7c0.3,0,0.7,0.1,1,0.2c0.3,0.1,0.6,0.3,0.8,0.5c0.5,0.4,0.7,1.1,0.7,1.7
		c0,0.6-0.3,1.3-0.7,1.7c-0.2,0.2-0.5,0.4-0.8,0.5C16.3,60.9,16,61,15.6,61z M43.5,60.6h-4.5L27,41.8c-0.3-0.5-0.6-1-0.8-1.5h-0.1
		c0.1,1.2,0.2,2.3,0.1,3.5v16.8h-4V35h4.8l11.6,18.4l0.9,1.6h0.1c-0.1-1.1-0.2-2.3-0.2-3.4V35h4L43.5,60.6L43.5,60.6z M63,60.6H49
		V35h13.5v3.6h-9.3v7.3h8.6v3.6h-8.6V57h9.8L63,60.6L63,60.6z M82.9,38.6h-7.2v22h-4.1v-22h-7.2V35h18.5
		C82.9,35,82.9,38.6,82.9,38.6z"/>
</g>
</svg>
