<?xml version="1.0" encoding="utf-8"?>
<svg version="1.1" id="Layer_1"
	 xmlns="http://www.w3.org/2000/svg" xmlns:xlink="http://www.w3.org/1999/xlink" x="0px" y="0px" viewBox="0 0 96 96"
	 style="enable-background:new 0 0 96 96;" xml:space="preserve">
<style type="text/css">
	.st0{fill:url(#SVGID_1_);}
	.st1{fill:#386F9F;}
	.st2{fill:#FFCF46;}
</style>
	<g>
		<linearGradient id="SVGID_1_" gradientUnits="userSpaceOnUse" x1="7.3154" y1="-2.4493" x2="86.9769"
						y2="-103.3868" gradientTransform="matrix(1 0 0 -1 0 -6)">
		<stop offset="0" style="stop-color:#242429"/>
			<stop offset="1" style="stop-color:#18181D"/>
	</linearGradient>
		<path class="st0" d="M48,0.5L48,0.5c26.2,0,47.5,21.3,47.5,47.5l0,0c0,26.2-21.3,47.5-47.5,47.5h0C21.8,95.5,0.5,74.2,0.5,48l0,0
		C0.5,21.8,21.8,0.5,48,0.5z"/>
		<path class="st1" d="M47.6,18.2c-2.4,0-4.7,0.2-6.8,0.6c-6,1.1-7.1,3.3-7.1,7.4v5.4H48v1.8H28.4c-4.1,0-7.7,2.5-8.9,7.2
		c-1.3,5.4-1.4,8.8,0,14.4c1,4.2,3.4,7.2,7.5,7.2H32v-6.5c0-4.7,4.1-8.8,8.9-8.8H55c3.9,0,7.1-3.3,7.1-7.2V26.2
		c0-3.8-3.2-6.7-7.1-7.4C52.6,18.4,50.1,18.2,47.6,18.2C47.6,18.2,47.6,18.2,47.6,18.2z M40,22.6c1.5,0,2.7,1.2,2.7,2.7
		c0,1.5-1.2,2.7-2.7,2.7c-1.5,0-2.7-1.2-2.7-2.7C37.3,23.8,38.5,22.6,40,22.6L40,22.6z"/>
		<path class="st2" d="M63.9,33.4v6.3c0,4.9-4.1,9-8.9,9H40.9c-3.9,0-7.1,3.3-7.1,7.2v13.5c0,3.8,3.3,6.1,7.1,7.2
		c4.5,1.3,8.8,1.6,14.2,0c3.6-1,7.1-3.1,7.1-7.2v-5.4H48v-1.8h21.3c4.1,0,5.7-2.9,7.1-7.2c1.5-4.4,1.4-8.7,0-14.4
		c-1-4.1-3-7.2-7.1-7.2L63.9,33.4L63.9,33.4L63.9,33.4z M55.9,67.7c1.5,0,2.7,1.2,2.7,2.7s-1.2,2.7-2.7,2.7c-1.5,0-2.7-1.2-2.7-2.7
		C53.3,68.9,54.5,67.7,55.9,67.7L55.9,67.7L55.9,67.7z"/>
</g>
</svg>
